# xmcd CD database generated by RipIT
#
# Track frame offsets:
# 150
# 25970
# 53682
# 62813
# 79837
# 91346
# 107239
# 118889
# 143474
# 159371
# 180001
# 197361
# 220433
# 233463
#
# Disc length: 3353 seconds
#
# Revision: 1
# Processed by: cddbd v1.5.2PL0 Copyright (c) Steve Scherf et al.
# Submitted via: RipIT 3.7.0-beta20081019 www.suwald.com/ripit/ripit.html on 2008-12-18 at 18:18
#
DISCID=ad0d170e
DTITLE=Scout Niblett - This Fool Can Die Now
DYEAR=2007
DGENRE=Country Rock
TTITLE0=Do You Want To Be Buried With My People?
TTITLE1=Kiss
TTITLE2=Moon Lake
TTITLE3=Let Thine Heart Be Warmed
TTITLE4=Your Last Chariot
TTITLE5=Black Hearted Queen
TTITLE6=River Of No Return
TTITLE7=Nevada
TTITLE8=Baby Emma
TTITLE9=Yummy
TTITLE10=Dinosaur Egg
TTITLE11=Hide And Seek
TTITLE12=Comfort You
TTITLE13=Fishes And Honey
EXTD=
EXTT0=
EXTT1=
EXTT2=
EXTT3=
EXTT4=
EXTT5=
EXTT6=
EXTT7=
EXTT8=
EXTT9=
EXTT10=
EXTT11=
EXTT12=
EXTT13=
PLAYORDER=
